<!DOCTYPE svg PUBLIC "-//W3C//DTD SVG 1.1//EN" "http://www.w3.org/Graphics/SVG/1.1/DTD/svg11.dtd">
<!-- Created by: Easy Logo, www.easylogo.dev, Transformed by: Easy Logo Editor -->
<svg width="300px" height="100px" viewBox="0 0 72 24" fill="none" xmlns="http://www.w3.org/2000/svg">
      <g id="easylogo_bgCarrier" stroke-width="0"/>
      <g id="easylogo_tracerCarrier" stroke-linecap="round" stroke-linejoin="round"/>
      <g id="easylogo_iconAttributionCarrier">
<g id="easylogo_iconCarrier"> <path d="M18 16.3741C16.1233 16.7794 14.1038 17 12 17C9.89619 17 7.87667 16.7794 6 16.3741M16 20.667C14.7104 20.8852 13.3722 21 12 21C10.6278 21 9.28964 20.8852 8 20.667M19 12.0635C16.9408 12.6591 14.55 13 12 13C9.44999 13 7.05921 12.6591 5 12.0635M21 6C21 7.65685 16.9706 9 12 9C7.02944 9 3 7.65685 3 6C3 4.34315 7.02944 3 12 3C16.9706 3 21 4.34315 21 6Z" stroke="#1967d2" stroke-width="2" stroke-linecap="round"/> </g>
</g>
<path d="M5.53 0.19Q4.47 0.19 3.61 -0.17Q2.76 -0.53 2.14 -1.19Q1.53 -1.85 1.2 -2.75Q0.87 -3.65 0.87 -4.72L0.87 -5.11Q0.87 -6.35 1.24 -7.32Q1.6 -8.29 2.23 -8.96Q2.86 -9.64 3.66 -9.98Q4.45 -10.33 5.31 -10.33Q6.39 -10.33 7.19 -9.96Q7.98 -9.58 8.48 -8.91Q8.99 -8.24 9.23 -7.34Q9.48 -6.43 9.48 -5.36L9.48 -4.58L1.9 -4.58L1.9 -6L7.74 -6L7.74 -6.13Q7.71 -6.81 7.47 -7.44Q7.23 -8.08 6.71 -8.49Q6.2 -8.91 5.31 -8.91Q4.72 -8.91 4.22 -8.66Q3.72 -8.41 3.37 -7.92Q3.01 -7.43 2.81 -6.73Q2.62 -6.03 2.62 -5.11L2.62 -4.72Q2.62 -3.99 2.82 -3.36Q3.02 -2.73 3.41 -2.25Q3.8 -1.77 4.35 -1.5Q4.91 -1.23 5.63 -1.23Q6.54 -1.23 7.18 -1.6Q7.82 -1.98 8.3 -2.61L9.35 -1.77Q9.02 -1.28 8.51 -0.83Q8.01 -0.38 7.27 -0.09Q6.53 0.19 5.53 0.19Z"/>
</g>
      </g>
</svg>
