<!DOCTYPE svg PUBLIC "-//W3C//DTD SVG 1.1//EN" "http://www.w3.org/Graphics/SVG/1.1/DTD/svg11.dtd">
<!-- Created by: Easy Logo, www.easylogo.dev, Transformed by: Easy Logo Editor -->
<svg width="230" height="100px" viewBox="0 0 117.9862548828125 24" fill="none" xmlns="http://www.w3.org/2000/svg">
      <g id="easylogo_bgCarrier" stroke-width="0"/>
      <g id="easylogo_tracerCarrier" stroke-linecap="round" stroke-linejoin="round" transform="translate(1.3200000000000003,1.3200000000000003), scale(0.89)"/>
      <g id="easylogo_iconAttributionCarrier">
<g id="easylogo_iconCarrier" transform="translate(1.3200000000000003,1.3200000000000003), scale(0.89)"> <path d="M18 16.3741C16.1233 16.7794 14.1038 17 12 17C9.89619 17 7.87667 16.7794 6 16.3741M16 20.667C14.7104 20.8852 13.3722 21 12 21C10.6278 21 9.28964 20.8852 8 20.667M19 12.0635C16.9408 12.6591 14.55 13 12 13C9.44999 13 7.05921 12.6591 5 12.0635M21 6C21 7.65685 16.9706 9 12 9C7.02944 9 3 7.65685 3 6C3 4.34315 7.02944 3 12 3C16.9706 3 21 4.34315 21 6Z" stroke="#1967d2" stroke-width="2" stroke-linecap="round"/> </g>
</g>

      <g id="easylogo_text">
        <g id="easylogo_textInput" fill="#1967d2" transform="translate(26.400000000000002 19.200000000000003)">
<path d="M3.72 -5.15L3.72 0L1.86 0L1.86 -13.76L5.92 -13.76Q7.23 -13.76 8.19 -13.45Q9.16 -13.15 9.79 -12.6Q10.43 -12.04 10.74 -11.25Q11.05 -10.46 11.05 -9.49Q11.05 -8.53 10.71 -7.74Q10.38 -6.94 9.73 -6.36Q9.08 -5.79 8.12 -5.47Q7.16 -5.15 5.92 -5.15ZM3.72 -6.62L5.92 -6.62Q6.72 -6.62 7.33 -6.84Q7.94 -7.05 8.35 -7.43Q8.76 -7.8 8.98 -8.33Q9.19 -8.86 9.19 -9.49Q9.19 -10.81 8.38 -11.55Q7.56 -12.29 5.92 -12.29L3.72 -12.29ZM16.78 -9.88Q17.85 -9.88 18.71 -9.52Q19.56 -9.17 20.16 -8.52Q20.76 -7.86 21.09 -6.94Q21.41 -6.01 21.41 -4.87Q21.41 -3.72 21.09 -2.79Q20.76 -1.87 20.16 -1.22Q19.56 -0.57 18.71 -0.22Q17.85 0.13 16.78 0.13Q15.72 0.13 14.86 -0.22Q14 -0.57 13.39 -1.22Q12.79 -1.87 12.46 -2.79Q12.13 -3.72 12.13 -4.87Q12.13 -6.01 12.46 -6.94Q12.79 -7.86 13.39 -8.52Q14 -9.17 14.86 -9.52Q15.72 -9.88 16.78 -9.88ZM16.78 -1.2Q18.22 -1.2 18.93 -2.16Q19.64 -3.13 19.64 -4.86Q19.64 -6.6 18.93 -7.56Q18.22 -8.53 16.78 -8.53Q16.05 -8.53 15.51 -8.28Q14.98 -8.04 14.62 -7.56Q14.26 -7.09 14.08 -6.41Q13.9 -5.72 13.9 -4.86Q13.9 -3.99 14.08 -3.31Q14.26 -2.63 14.62 -2.16Q14.98 -1.7 15.51 -1.45Q16.05 -1.2 16.78 -1.2ZM29.09 -8.12Q28.97 -7.91 28.73 -7.91Q28.59 -7.91 28.41 -8.02Q28.22 -8.12 27.96 -8.25Q27.7 -8.38 27.33 -8.49Q26.97 -8.6 26.47 -8.6Q26.04 -8.6 25.69 -8.49Q25.34 -8.38 25.1 -8.19Q24.85 -8 24.72 -7.74Q24.6 -7.49 24.6 -7.19Q24.6 -6.82 24.81 -6.57Q25.03 -6.32 25.38 -6.13Q25.74 -5.95 26.19 -5.81Q26.64 -5.67 27.12 -5.52Q27.59 -5.36 28.04 -5.16Q28.49 -4.97 28.85 -4.68Q29.2 -4.4 29.42 -3.98Q29.64 -3.56 29.64 -2.98Q29.64 -2.3 29.4 -1.73Q29.16 -1.16 28.68 -0.74Q28.21 -0.33 27.53 -0.09Q26.85 0.15 25.96 0.15Q24.94 0.15 24.12 -0.18Q23.29 -0.51 22.71 -1.03L23.12 -1.68Q23.19 -1.8 23.3 -1.87Q23.4 -1.94 23.58 -1.94Q23.75 -1.94 23.94 -1.8Q24.13 -1.67 24.41 -1.51Q24.68 -1.34 25.07 -1.21Q25.46 -1.08 26.04 -1.08Q26.54 -1.08 26.92 -1.2Q27.29 -1.33 27.54 -1.56Q27.79 -1.78 27.91 -2.06Q28.03 -2.35 28.03 -2.68Q28.03 -3.08 27.82 -3.35Q27.6 -3.61 27.24 -3.8Q26.89 -3.98 26.43 -4.12Q25.98 -4.26 25.5 -4.42Q25.03 -4.57 24.57 -4.77Q24.12 -4.96 23.76 -5.26Q23.4 -5.56 23.19 -6Q22.97 -6.43 22.97 -7.06Q22.97 -7.61 23.2 -8.13Q23.43 -8.64 23.88 -9.03Q24.32 -9.42 24.96 -9.65Q25.6 -9.88 26.43 -9.88Q27.39 -9.88 28.15 -9.58Q28.92 -9.27 29.47 -8.75ZM39 0L38.24 0Q37.99 0 37.83 -0.08Q37.68 -0.15 37.63 -0.4L37.44 -1.31Q37.06 -0.96 36.69 -0.69Q36.33 -0.41 35.92 -0.23Q35.52 -0.04 35.06 0.06Q34.61 0.15 34.05 0.15Q33.48 0.15 32.99 0Q32.5 -0.16 32.13 -0.48Q31.77 -0.8 31.55 -1.28Q31.33 -1.77 31.33 -2.43Q31.33 -3 31.65 -3.54Q31.97 -4.07 32.67 -4.48Q33.38 -4.9 34.52 -5.16Q35.66 -5.42 37.32 -5.46L37.32 -6.22Q37.32 -7.35 36.83 -7.93Q36.35 -8.52 35.4 -8.52Q34.77 -8.52 34.34 -8.36Q33.92 -8.2 33.6 -8Q33.29 -7.8 33.07 -7.65Q32.84 -7.49 32.62 -7.49Q32.45 -7.49 32.32 -7.58Q32.19 -7.67 32.11 -7.8L31.8 -8.35Q32.61 -9.13 33.54 -9.51Q34.47 -9.9 35.61 -9.9Q36.42 -9.9 37.06 -9.63Q37.69 -9.36 38.12 -8.88Q38.55 -8.4 38.77 -7.72Q39 -7.04 39 -6.22ZM34.56 -1.05Q35.01 -1.05 35.39 -1.14Q35.76 -1.23 36.09 -1.4Q36.42 -1.56 36.72 -1.8Q37.03 -2.04 37.32 -2.35L37.32 -4.38Q36.13 -4.34 35.31 -4.19Q34.48 -4.04 33.96 -3.8Q33.45 -3.56 33.21 -3.24Q32.98 -2.91 32.98 -2.51Q32.98 -2.12 33.1 -1.84Q33.23 -1.56 33.44 -1.39Q33.65 -1.21 33.94 -1.13Q34.22 -1.05 34.56 -1.05ZM45.52 -9.88Q46.59 -9.88 47.45 -9.52Q48.31 -9.17 48.91 -8.52Q49.51 -7.86 49.83 -6.94Q50.15 -6.01 50.15 -4.87Q50.15 -3.72 49.83 -2.79Q49.51 -1.87 48.91 -1.22Q48.31 -0.57 47.45 -0.22Q46.59 0.13 45.52 0.13Q44.46 0.13 43.6 -0.22Q42.74 -0.57 42.13 -1.22Q41.53 -1.87 41.2 -2.79Q40.88 -3.72 40.88 -4.87Q40.88 -6.01 41.2 -6.94Q41.53 -7.86 42.13 -8.52Q42.74 -9.17 43.6 -9.52Q44.46 -9.88 45.52 -9.88ZM45.52 -1.2Q46.96 -1.2 47.67 -2.16Q48.38 -3.13 48.38 -4.86Q48.38 -6.6 47.67 -7.56Q46.96 -8.53 45.52 -8.53Q44.79 -8.53 44.26 -8.28Q43.72 -8.04 43.36 -7.56Q43 -7.09 42.82 -6.41Q42.64 -5.72 42.64 -4.86Q42.64 -3.99 42.82 -3.31Q43 -2.63 43.36 -2.16Q43.72 -1.7 44.26 -1.45Q44.79 -1.2 45.52 -1.2ZM63.69 0L61.81 0L61.81 -6.26L54.4 -6.26L54.4 0L52.53 0L52.53 -13.76L54.4 -13.76L54.4 -7.62L61.81 -7.62L61.81 -13.76L63.69 -13.76ZM68.26 -9.72L68.26 -3.52Q68.26 -2.42 68.76 -1.81Q69.27 -1.21 70.3 -1.21Q71.05 -1.21 71.71 -1.56Q72.37 -1.92 72.93 -2.55L72.93 -9.72L74.64 -9.72L74.64 0L73.62 0Q73.26 0 73.16 -0.36L73.03 -1.4Q72.39 -0.7 71.61 -0.27Q70.82 0.15 69.8 0.15Q69 0.15 68.4 -0.11Q67.79 -0.37 67.37 -0.85Q66.96 -1.33 66.75 -2.02Q66.55 -2.7 66.55 -3.52L66.55 -9.72ZM77.51 0L77.51 -14.14L79.23 -14.14L79.23 -8.32Q79.83 -9.02 80.62 -9.45Q81.4 -9.88 82.41 -9.88Q83.25 -9.88 83.93 -9.56Q84.61 -9.24 85.09 -8.62Q85.57 -7.99 85.83 -7.06Q86.09 -6.13 86.09 -4.92Q86.09 -3.85 85.8 -2.92Q85.52 -2 84.97 -1.32Q84.43 -0.64 83.65 -0.25Q82.87 0.13 81.89 0.13Q80.95 0.13 80.29 -0.23Q79.63 -0.6 79.14 -1.25L79.06 -0.36Q78.98 0 78.61 0ZM81.85 -8.52Q81.01 -8.52 80.39 -8.13Q79.76 -7.75 79.23 -7.05L79.23 -2.34Q79.69 -1.71 80.25 -1.45Q80.81 -1.19 81.5 -1.19Q82.87 -1.19 83.6 -2.16Q84.33 -3.13 84.33 -4.92Q84.33 -5.88 84.16 -6.56Q83.99 -7.24 83.67 -7.68Q83.36 -8.11 82.9 -8.31Q82.44 -8.52 81.85 -8.52Z"/>
</g>
      </g>
      </svg>
